<?xml version="1.0" encoding="UTF-8"?>
<svg id="Layer_1" data-name="Layer 1" xmlns="http://www.w3.org/2000/svg" viewBox="0 0 512 512">
  <defs>
    <style>
      .cls-1 {
        fill: #0061fc;
      }

      .cls-2 {
        fill: #4a9cff;
      }

      .cls-3 {
        fill: #00cfff;
      }
    </style>
  </defs>
  <path class="cls-1" d="m0,167.6v176.8c0,13.4,7.15,25.79,18.76,32.49l153.62,88.7c11.61,6.7,25.92,6.7,37.53,0l46.09-26.62-21.6-12.46-169.61-97.84v-145.32s126.35-72.94,126.35-72.94l107.28,61.89,55.6,32.09v-74.76s-76.43-44.12-76.43-44.12l-21.6-12.46-46.09-26.62c-11.61-6.71-25.91-6.71-37.53,0L18.76,135.11C7.15,141.81,0,154.2,0,167.6Z"/>
  <path class="cls-3" d="m157.98,307.62v74.76s76.43,44.12,76.43,44.12l21.6,12.46,46.09,26.62c11.61,6.71,25.91,6.71,37.53,0l153.62-88.7c11.61-6.7,18.76-19.09,18.76-32.49v-176.8c0-13.4-7.15-25.79-18.76-32.49l-153.62-88.7c-11.61-6.7-25.92-6.7-37.53,0l-46.09,26.62,21.6,12.46,169.61,97.84v145.32s-126.41,72.91-126.41,72.91l-107.22-61.86-55.6-32.09Z"/>
  <polygon class="cls-2" points="157.98 307.62 213.58 339.71 354.02 204.38 298.43 172.29 157.98 307.62"/>
</svg>